<svg width="20" height="20" viewBox="0 0 20 20" fill="none" xmlns="http://www.w3.org/2000/svg">
<path fill-rule="evenodd" clip-rule="evenodd" d="M5.83464 5C3.53345 5 1.66797 6.86548 1.66797 9.16667V14.1667C1.66797 16.4679 3.53345 18.3333 5.83464 18.3333H14.168C16.3993 18.3333 18.221 16.5794 18.3295 14.375H14.5846C13.0889 14.375 11.8763 13.1624 11.8763 11.6667C11.8763 10.1709 13.0889 8.95833 14.5846 8.95833H18.3295C18.221 6.75394 16.3993 5 14.168 5H5.83464ZM14.5846 10.2083H18.3346V13.125H14.5846C13.7792 13.125 13.1263 12.4721 13.1263 11.6667C13.1263 10.8613 13.7792 10.2083 14.5846 10.2083ZM5.00131 13.9583C4.65613 13.9583 4.37631 14.2382 4.37631 14.5833C4.37631 14.9285 4.65613 15.2083 5.00131 15.2083H10.0013C10.3465 15.2083 10.6263 14.9285 10.6263 14.5833C10.6263 14.2382 10.3465 13.9583 10.0013 13.9583H5.00131ZM14.5846 11.0417C14.2395 11.0417 13.9596 11.3215 13.9596 11.6667C13.9596 12.0118 14.2395 12.2917 14.5846 12.2917H14.7513C15.0965 12.2917 15.3763 12.0118 15.3763 11.6667C15.3763 11.3215 15.0965 11.0417 14.7513 11.0417H14.5846Z" fill="white"/>
<path d="M16.2402 4.16142C15.6393 2.50194 13.8842 1.43057 12.0349 1.81132L4.86761 3.28693C3.37062 3.59513 2.1578 4.58199 1.52344 5.88644C2.51299 4.58832 4.07559 3.75057 5.83386 3.75057H14.1672C14.9015 3.75057 15.6017 3.89668 16.2402 4.16142Z" fill="white"/>
<rect x="4.16602" y="13.334" width="6.66667" height="2.5" fill="white"/>
</svg>
