<svg width="51" height="16" viewBox="0 0 51 16" fill="none" xmlns="http://www.w3.org/2000/svg">
<path d="M36.793 7.30859V15.2258H41.1914V10.5341H46.1764C48.273 10.5195 50.0544 9.17795 50.7288 7.30859H36.793Z" fill="#37A72E"/>
<path d="M36.207 0.783203C36.4636 4.01608 39.5279 6.57453 43.2666 6.57453C43.2812 6.57453 50.9126 6.57453 50.9126 6.57453C50.9712 6.2813 51.0006 5.9734 51.0006 5.65818C51.0006 2.97511 48.838 0.805195 46.1622 0.783203H36.207Z" fill="url(#paint0_linear_1240_14241)"/>
<path d="M29.6974 6.49389C29.7487 6.40592 29.8293 6.3546 29.932 6.3546C30.0786 6.3546 30.1885 6.4719 30.1959 6.61118V15.1516H34.5943V0.783203H30.1959C29.6387 0.805195 29.0083 1.20839 28.7737 1.71421L25.2769 9.22094C25.2696 9.25027 25.2549 9.27959 25.2403 9.30891C25.1889 9.38222 25.101 9.43354 24.9983 9.43354C24.8371 9.43354 24.7051 9.30158 24.7051 9.1403V0.783203H20.3066V15.1516H24.7051C25.2549 15.1222 25.8707 14.719 26.1053 14.2205L29.6974 6.51588C29.6901 6.50855 29.6974 6.50122 29.6974 6.49389Z" fill="#37A72E"/>
<path d="M13.2761 6.74265L10.703 15.1511H7.53605L4.97028 6.73532C4.94828 6.60337 4.83099 6.50074 4.68437 6.50074C4.5231 6.50074 4.39847 6.63269 4.39847 6.78664V15.1437H0V0.775391H3.77536H4.89697C5.70335 0.775391 6.55373 1.40584 6.78831 2.17557L8.9289 9.17648C9.03886 9.52835 9.20747 9.52102 9.31743 9.17648L11.458 2.17557C11.6926 1.39851 12.543 0.775391 13.3494 0.775391H14.471H18.2463V15.1437H13.8479V6.78664C13.8479 6.78664 13.8479 6.78664 13.8479 6.77931C13.8479 6.61803 13.7159 6.49341 13.562 6.49341C13.4153 6.50074 13.2981 6.60337 13.2761 6.74265Z" fill="#37A72E"/>
<defs>
<linearGradient id="paint0_linear_1240_14241" x1="36.2088" y1="3.67887" x2="50.9997" y2="3.67887" gradientUnits="userSpaceOnUse">
<stop stop-color="#00A0E5"/>
<stop offset="1" stop-color="#0077C3"/>
</linearGradient>
</defs>
</svg>
