<svg width="20" height="20" viewBox="0 0 20 20" fill="none" xmlns="http://www.w3.org/2000/svg">
<g clip-path="url(#clip0_3001_12019)">
<path d="M10 20C15.5228 20 20 15.5228 20 10C20 4.47715 15.5228 0 10 0C4.47715 0 0 4.47715 0 10C0 15.5228 4.47715 20 10 20Z" fill="#338AF3"/>
<path d="M15.652 10.1094H4.34766C4.34766 10.8898 5.02738 11.5224 5.80773 11.5224H5.7607C5.7607 12.3029 6.39332 12.9355 7.17375 12.9355C7.17375 13.7159 7.80637 14.3485 8.5868 14.3485H11.4129C12.1933 14.3485 12.8259 13.7159 12.8259 12.9355C13.6064 12.9355 14.239 12.3029 14.239 11.5224H14.192C14.9722 11.5224 15.652 10.8898 15.652 10.1094Z" fill="#FFDA44"/>
<path d="M13.914 8.26172C13.914 10.4228 12.162 12.1748 10.0009 12.1748C7.8398 12.1748 6.08789 10.4228 6.08789 8.26172" fill="#338AF3"/>
<path d="M12.9895 8.26121L11.7682 8.8357L12.4185 10.0185L11.0923 9.7648L10.9243 11.1045L10.0006 10.1191L9.07684 11.1045L8.90883 9.7648L7.58266 10.0184L8.23297 8.83566L7.01172 8.26121L8.23301 7.68676L7.58266 6.50398L8.90879 6.75766L9.07687 5.41797L10.0006 6.40332L10.9243 5.41797L11.0923 6.75766L12.4186 6.50398L11.7682 7.6868L12.9895 8.26121Z" fill="#FFDA44"/>
</g>
<defs>
<clipPath id="clip0_3001_12019">
<rect width="20" height="20" fill="white"/>
</clipPath>
</defs>
</svg>
