<svg width="135" height="23" viewBox="0 0 135 23" fill="none" xmlns="http://www.w3.org/2000/svg">
<path d="M118.373 3.76496C118.373 3.40863 118.568 3.23047 118.958 3.23047H121.094C121.941 3.23047 122.593 3.58309 123.05 4.28832L126.692 9.84484L130.324 4.28832C130.788 3.58309 131.441 3.23047 132.28 3.23047H134.427C134.809 3.23047 135.001 3.40863 135.001 3.76496C135.001 3.92828 134.941 4.10273 134.821 4.28832L128.806 13.4972V18.174C128.806 18.4636 128.701 18.7085 128.491 18.909C128.289 19.102 128.042 19.1985 127.749 19.1985H125.636C125.343 19.1985 125.092 19.102 124.882 18.909C124.673 18.7085 124.568 18.4636 124.568 18.174V13.4972L118.564 4.28832C118.437 4.10273 118.373 3.92828 118.373 3.76496Z" fill="white"/>
<path d="M105.279 18.174V4.31059C105.279 4.00623 105.384 3.75012 105.594 3.54226C105.804 3.3344 106.055 3.23047 106.347 3.23047H108.461C108.753 3.23047 109.001 3.3344 109.203 3.54226C109.413 3.75012 109.518 4.00623 109.518 4.31059V16.0472H119.31C119.602 16.0472 119.849 16.1511 120.052 16.359C120.262 16.5668 120.367 16.8155 120.367 17.1051V18.1518C120.367 18.4413 120.262 18.69 120.052 18.8978C119.849 19.0983 119.602 19.1985 119.31 19.1985H106.347C106.055 19.1985 105.804 19.102 105.594 18.909C105.384 18.7085 105.279 18.4636 105.279 18.174Z" fill="white"/>
<path d="M87.1816 15.1111C87.1816 14.6731 87.3128 14.3613 87.5751 14.1757C87.8374 13.9827 88.0923 13.8862 88.3396 13.8862H89.6775C90.352 13.8862 90.8654 14.2499 91.2177 14.9774C91.5699 15.705 92.3607 16.0687 93.5898 16.0687L97.5247 16.1467C98.8438 16.1467 99.5034 15.7198 99.5034 14.8661C99.5034 14.2202 98.6976 13.7117 97.0862 13.3406C96.3667 13.1698 95.5722 13.0028 94.7028 12.8395C93.8334 12.6687 92.9678 12.4572 92.1058 12.2048C91.2514 11.9524 90.4644 11.6554 89.7449 11.3139C89.0254 10.9725 88.4408 10.5048 87.9911 9.91089C87.5489 9.30958 87.3278 8.60435 87.3278 7.79518C87.3278 6.30305 87.8637 5.15611 88.9355 4.35437C90.0072 3.54521 91.851 3.14062 94.4667 3.14062L97.3223 3.20744C98.8588 3.20744 100.242 3.60088 101.471 4.38778C102.707 5.16725 103.326 6.14344 103.326 7.31636C103.326 7.75435 103.195 8.06985 102.932 8.26286C102.67 8.45587 102.419 8.55238 102.179 8.55238H100.841C100.167 8.55238 99.6533 8.18863 99.301 7.46112C98.9487 6.72619 98.158 6.35873 96.9288 6.35873L93.5449 6.29191C92.2257 6.29191 91.5662 6.71877 91.5662 7.57247C91.5662 8.04016 91.9822 8.42247 92.8141 8.71941C93.6535 9.01635 94.6654 9.27989 95.8496 9.51002C97.0413 9.73272 98.2367 10.0037 99.4359 10.3229C100.635 10.6421 101.651 11.1692 102.483 11.9041C103.322 12.6316 103.742 13.541 103.742 14.6323C103.742 16.1244 103.202 17.275 102.123 18.0842C101.051 18.8859 99.2111 19.2868 96.6028 19.2868L93.1963 19.22C91.6599 19.22 90.2733 18.8303 89.0366 18.0508C87.8 17.2639 87.1816 16.284 87.1816 15.1111Z" fill="white"/>
<path d="M70.0059 15.1111C70.0059 14.6731 70.137 14.3613 70.3993 14.1757C70.6617 13.9827 70.9165 13.8862 71.1638 13.8862H72.5017C73.1762 13.8862 73.6896 14.2499 74.0419 14.9774C74.3942 15.705 75.1849 16.0687 76.4141 16.0687L80.3489 16.1467C81.668 16.1467 82.3276 15.7198 82.3276 14.8661C82.3276 14.2202 81.5219 13.7117 79.9104 13.3406C79.1909 13.1698 78.3965 13.0028 77.5271 12.8395C76.6576 12.6687 75.792 12.4572 74.93 12.2048C74.0756 11.9524 73.2887 11.6554 72.5691 11.3139C71.8496 10.9725 71.265 10.5048 70.8153 9.91089C70.3731 9.30958 70.152 8.60435 70.152 7.79518C70.152 6.30305 70.6879 5.15611 71.7597 4.35437C72.8315 3.54521 74.6752 3.14062 77.291 3.14062L80.1465 3.20744C81.683 3.20744 83.0658 3.60088 84.295 4.38778C85.5317 5.16725 86.15 6.14344 86.15 7.31636C86.15 7.75435 86.0188 8.06985 85.7565 8.26286C85.4942 8.45587 85.2431 8.55238 85.0033 8.55238H83.6654C82.9909 8.55238 82.4775 8.18863 82.1252 7.46112C81.7729 6.72619 80.9822 6.35873 79.7531 6.35873L76.3691 6.29191C75.05 6.29191 74.3904 6.71877 74.3904 7.57247C74.3904 8.04016 74.8064 8.42247 75.6383 8.71941C76.4778 9.01635 77.4896 9.27989 78.6738 9.51002C79.8655 9.73272 81.0609 10.0037 82.2601 10.3229C83.4593 10.6421 84.4749 11.1692 85.3068 11.9041C86.1463 12.6316 86.566 13.541 86.566 14.6323C86.566 16.1244 86.0263 17.275 84.9471 18.0842C83.8753 18.8859 82.0353 19.2868 79.427 19.2868L76.0206 19.22C74.4841 19.22 73.0975 18.8303 71.8609 18.0508C70.6242 17.2639 70.0059 16.284 70.0059 15.1111Z" fill="white"/>
<path d="M54.5391 18.1295V4.26605C54.5391 3.97653 54.644 3.73156 54.8539 3.53112C55.0637 3.33069 55.3148 3.23047 55.6071 3.23047H68.5696C68.8619 3.23047 69.1093 3.3344 69.3116 3.54226C69.5215 3.75012 69.6264 3.9988 69.6264 4.28832V5.33504C69.6264 5.62456 69.5215 5.87325 69.3116 6.0811C69.1093 6.28154 68.8619 6.38176 68.5696 6.38176H58.7775V9.62213H67.2093C67.5016 9.62213 67.7489 9.72606 67.9513 9.93392C68.1612 10.1344 68.2661 10.3793 68.2661 10.6688V11.7156C68.2661 12.0051 68.1612 12.2538 67.9513 12.4616C67.7489 12.6621 67.5016 12.7623 67.2093 12.7623H58.7775V16.0472H68.5471C68.832 16.0472 69.0755 16.1474 69.2779 16.3478C69.4803 16.5483 69.5814 16.7933 69.5814 17.0828V18.1518C69.5814 18.4413 69.4765 18.69 69.2667 18.8978C69.0568 19.0983 68.8057 19.1985 68.5134 19.1985H55.6071C55.3148 19.1985 55.0637 19.0983 54.8539 18.8978C54.644 18.69 54.5391 18.4339 54.5391 18.1295Z" fill="white"/>
<path d="M36.3301 18.174V4.31059C36.3301 4.00623 36.435 3.75012 36.6449 3.54226C36.8547 3.3344 37.1058 3.23047 37.3981 3.23047H43.6826C46.9354 3.23047 49.3001 3.87632 50.7766 5.16801C52.2606 6.45228 53.0026 8.47148 53.0026 11.2256C53.0026 13.9723 52.2606 15.9878 50.7766 17.2721C49.3001 18.5564 46.9354 19.1985 43.6826 19.1985H37.3981C37.1058 19.1985 36.8547 19.102 36.6449 18.909C36.435 18.7085 36.3301 18.4636 36.3301 18.174ZM40.5685 16.0472H43.559C45.5751 16.0472 46.9467 15.6834 47.6737 14.9559C48.4007 14.2284 48.7642 12.985 48.7642 11.2256C48.7642 9.45881 48.4007 8.21166 47.6737 7.48415C46.9467 6.74922 45.5751 6.38176 43.559 6.38176H40.5685V16.0472Z" fill="white"/>
<rect x="9.69922" y="10.1406" width="0.939753" height="3.94696" fill="white"/>
<rect x="12.1426" y="11.6445" width="0.939753" height="3.94696" transform="rotate(90 12.1426 11.6445)" fill="white"/>
<circle cx="19.1498" cy="12.2103" r="0.563852" fill="white"/>
<circle cx="22.1576" cy="12.2103" r="0.563852" fill="white"/>
<circle cx="20.6537" cy="10.7064" r="0.563852" fill="white"/>
<circle cx="20.6537" cy="13.7123" r="0.563852" fill="white"/>
<path d="M30.7611 10.0737C30.6153 9.53961 30.3925 9.10259 29.9889 8.98063C29.7469 8.21952 29.3829 7.59956 28.7407 7.41324C28.5428 6.28286 28.2647 5.70129 27.9074 5.19652C26.935 3.82222 24.8773 2.42534 22.8896 1.55243C22.8749 1.54566 22.8591 1.53888 22.8433 1.53211C18.1534 -0.510703 12.8157 -0.510703 8.12585 1.53211C8.11002 1.53888 8.09532 1.54566 8.0795 1.55243C6.09184 2.42421 4.03296 3.8211 3.06175 5.19652C2.70447 5.70129 2.42634 6.28286 2.22848 7.41211C1.56479 7.59956 1.15777 8.23646 0.967821 8.98289C0.557402 9.10824 0.309793 9.55542 0.200122 10.0737C-0.0667073 11.4424 -0.0667073 12.8585 0.200122 14.226C0.345973 14.7601 0.568708 15.1971 0.972344 15.3191C1.24822 16.1898 1.68577 16.8763 2.51566 16.9407C2.57558 17.1417 2.63776 17.3382 2.7056 17.5279C3.0968 18.6289 3.2924 19.3449 4.77466 20.4391C5.74022 21.1517 6.77588 21.6226 8.85172 22.0189C9.94052 22.2267 12.8021 22.5892 14.8712 22.5316C15.2805 22.5203 15.6898 22.5203 16.0991 22.5316C18.1681 22.5903 21.0309 22.2267 22.1186 22.0189C24.1944 21.6226 25.2301 21.1505 26.1956 20.4391C27.679 19.346 27.8735 18.6289 28.2647 17.5279C28.3325 17.3382 28.3947 17.1406 28.4546 16.9407C29.2845 16.8707 29.7786 16.1649 29.9934 15.3191C30.4038 15.1938 30.6514 14.7466 30.7611 14.2283C31.0279 12.8596 31.0279 11.4435 30.7611 10.076V10.0737ZM24.5166 15.3948C24.5166 17.3879 22.8987 19.0038 20.9031 19.0038C17.2975 19.3042 13.6716 19.3042 10.066 19.0038C8.07045 19.0038 6.45252 17.3879 6.45252 15.3948V11.1883C6.45252 9.19519 8.07045 7.57923 10.066 7.57923C13.6716 7.27885 17.2975 7.27885 20.9031 7.57923C22.8987 7.57923 24.5166 9.19519 24.5166 11.1883V15.3948Z" fill="white"/>
</svg>
