<svg width="43" height="26" viewBox="0 0 43 26" fill="none" xmlns="http://www.w3.org/2000/svg">
<path fill-rule="evenodd" clip-rule="evenodd" d="M21.4999 22.8084C19.2227 24.7279 16.2688 25.8867 13.0409 25.8867C5.83861 25.8867 0 20.1175 0 13.001C0 5.88437 5.83861 0.115234 13.0409 0.115234C16.2688 0.115234 19.2227 1.274 21.4999 3.19349C23.7771 1.274 26.7311 0.115234 29.9589 0.115234C37.1612 0.115234 42.9998 5.88437 42.9998 13.001C42.9998 20.1175 37.1612 25.8867 29.9589 25.8867C26.7311 25.8867 23.7771 24.7279 21.4999 22.8084Z" fill="#ED0006"/>
<path fill-rule="evenodd" clip-rule="evenodd" d="M21.5 22.8084C24.3039 20.4449 26.0819 16.9281 26.0819 13.001C26.0819 9.07381 24.3039 5.55697 21.5 3.1935C23.7772 1.274 26.7312 0.115234 29.959 0.115234C37.1613 0.115234 42.9999 5.88437 42.9999 13.001C42.9999 20.1175 37.1613 25.8867 29.959 25.8867C26.7312 25.8867 23.7772 24.7279 21.5 22.8084Z" fill="#F9A000"/>
<path fill-rule="evenodd" clip-rule="evenodd" d="M21.4999 22.8083C24.3038 20.4448 26.0818 16.928 26.0818 13.0008C26.0818 9.07367 24.3038 5.55684 21.4999 3.19336C18.6959 5.55684 16.918 9.07367 16.918 13.0008C16.918 16.928 18.6959 20.4448 21.4999 22.8083Z" fill="#FF5E00"/>
</svg>
