<svg width="43" height="14" viewBox="0 0 43 14" fill="none" xmlns="http://www.w3.org/2000/svg">
<path fill-rule="evenodd" clip-rule="evenodd" d="M10.7505 13.755H7.02907L4.23849 3.1088C4.10604 2.61908 3.8248 2.18613 3.41111 1.98208C2.37871 1.46928 1.24107 1.06118 0 0.855352V0.445472H5.99485C6.82223 0.445472 7.44276 1.06118 7.54618 1.77625L8.99409 9.45573L12.7137 0.445472H16.3316L10.7505 13.755ZM18.4001 13.755H14.8856L17.7796 0.445472H21.2941L18.4001 13.755ZM25.8409 4.13278C25.9443 3.41594 26.5649 3.00606 27.2888 3.00606C28.4265 2.90314 29.6657 3.10897 30.6999 3.61999L31.3205 0.754379C30.2862 0.344499 29.1486 0.138672 28.1162 0.138672C24.7051 0.138672 22.223 1.98224 22.223 4.54089C22.223 6.48737 23.9811 7.50941 25.2222 8.12512C26.5649 8.73905 27.082 9.14893 26.9786 9.76286C26.9786 10.6838 25.9443 11.0936 24.9119 11.0936C23.6709 11.0936 22.4298 10.7867 21.294 10.2739L20.6734 13.1413C21.9145 13.6523 23.2572 13.8581 24.4982 13.8581C28.323 13.9592 30.6999 12.1175 30.6999 9.35298C30.6999 5.87166 25.8409 5.66761 25.8409 4.13278ZM43.0001 13.755L40.2095 0.445472H37.212C36.5915 0.445472 35.971 0.855352 35.7641 1.46928L30.5967 13.755H34.2146L34.9368 11.8103H39.3821L39.7958 13.755H43.0001ZM37.7291 4.03023L38.7615 9.04638H35.8675L37.7291 4.03023Z" fill="white"/>
</svg>
