<svg width="24" height="24" viewBox="0 0 24 24" fill="none" xmlns="http://www.w3.org/2000/svg">
<g clip-path="url(#clip0_1361_47708)">
<path d="M12 24C18.6274 24 24 18.6274 24 12C24 5.37258 18.6274 0 12 0C5.37258 0 0 5.37258 0 12C0 18.6274 5.37258 24 12 24Z" fill="#D80027"/>
<path d="M17.8681 11.9986L15.4702 13.1265L16.7471 15.4491L14.1431 14.9508L13.8133 17.5813L11.9994 15.6467L10.1857 17.5813L9.85578 14.9508L7.25197 15.449L8.52884 13.1265L6.13086 11.9986L8.52884 10.8708L7.25197 8.54822L9.85569 9.0465L10.1858 6.41602L11.9994 8.35059L13.8133 6.41602L14.1431 9.0465L16.7472 8.54822L15.4702 10.8709L17.8681 11.9986Z" fill="#FFDA44"/>
<path d="M11.9998 15.652C14.0169 15.652 15.652 14.0169 15.652 11.9998C15.652 9.98279 14.0169 8.34766 11.9998 8.34766C9.98279 8.34766 8.34766 9.98279 8.34766 11.9998C8.34766 14.0169 9.98279 15.652 11.9998 15.652Z" fill="#D80027"/>
<path d="M10.1746 11.998C10.0867 11.998 9.9998 12.0025 9.91406 12.0111C9.9172 12.5169 10.1002 12.9799 10.4025 13.3396C10.5637 12.9056 10.8045 12.51 11.1081 12.1713C10.8181 12.0598 10.5035 11.998 10.1746 11.998Z" fill="#FFDA44"/>
<path d="M11.2988 13.9656C11.5182 14.044 11.7544 14.0869 12.0008 14.0869C12.2472 14.0869 12.4834 14.044 12.7027 13.9656C12.5832 13.4963 12.3363 13.0773 12.0008 12.748C11.6653 13.0773 11.4184 13.4963 11.2988 13.9656Z" fill="#FFDA44"/>
<path d="M13.8079 10.9559C13.447 10.3322 12.7731 9.91211 12.0006 9.91211C11.2281 9.91211 10.5542 10.3322 10.1934 10.9559C10.8512 10.9593 11.4681 11.1381 12.0006 11.447C12.5332 11.1381 13.15 10.9593 13.8079 10.9559Z" fill="#FFDA44"/>
<path d="M12.8926 12.1713C13.1962 12.5099 13.4369 12.9056 13.5982 13.3396C13.9004 12.9799 14.0834 12.5169 14.0866 12.0111C14.0008 12.0025 13.9139 11.998 13.826 11.998C13.4972 11.998 13.1826 12.0598 12.8926 12.1713Z" fill="#FFDA44"/>
</g>
<defs>
<clipPath id="clip0_1361_47708">
<rect width="24" height="24" fill="white"/>
</clipPath>
</defs>
</svg>
