<svg width="24" height="24" viewBox="0 0 24 24" fill="none" xmlns="http://www.w3.org/2000/svg">
<g clip-path="url(#clip0_1361_47711)">
<path d="M0.566625 8.34794C0.199031 9.49956 -4.68667e-05 10.7264 8.276e-09 12C-4.68667e-05 13.2736 0.199078 14.5005 0.566672 15.6521L12 16.174L23.4333 15.6522C23.8009 14.5006 24 13.2736 24 12.0001C24 10.7265 23.8009 9.49956 23.4333 8.34789L12 7.82617L0.566625 8.34794Z" fill="#F0F0F0"/>
<path d="M23.4332 8.34789L11.9999 7.82617L0.5665 8.34789C0.457563 8.68933 0.363766 9.03747 0.285156 9.39138H23.7144C23.6359 9.03742 23.5421 8.68923 23.4332 8.34789Z" fill="#D80027"/>
<path d="M0.285156 14.6094C0.363672 14.9633 0.457469 15.3114 0.566406 15.6528L0.567531 15.6529L11.9997 16.1746L23.433 15.6529C23.542 15.3114 23.6358 14.9633 23.7143 14.6094H0.285156Z" fill="#D80027"/>
<path d="M11.9997 24.0002C17.3536 24.0002 21.8878 20.4938 23.433 15.6523H0.566406C2.11164 20.4937 6.64595 24.0002 11.9997 24.0002Z" fill="#6DA544"/>
<path d="M11.9997 4.69973e-10C6.64595 4.68755e-05 2.11173 3.50644 0.566406 8.34783L23.433 8.34787C21.8879 3.50639 17.3536 -4.68745e-05 11.9997 4.69973e-10Z" fill="#338AF3"/>
<path d="M5.48473 4.9552C5.48473 3.83128 6.27462 2.89238 7.32945 2.66203C7.16736 2.62659 6.99912 2.60742 6.82634 2.60742C5.52969 2.60742 4.47852 3.65855 4.47852 4.95525C4.47852 6.25195 5.52959 7.30308 6.82634 7.30308C6.99912 7.30308 7.16731 7.28386 7.32945 7.24847C6.27467 7.01803 5.48473 6.07913 5.48473 4.9552Z" fill="#F0F0F0"/>
<path d="M8.71628 6.02148L8.87519 6.51062H9.3895L8.97344 6.81297L9.13234 7.30211L8.71628 6.99981L8.30012 7.30211L8.45908 6.81297L8.04297 6.51062H8.55728L8.71628 6.02148Z" fill="#F0F0F0"/>
<path d="M10.3588 6.02148L10.5177 6.51062H11.032L10.6159 6.81297L10.7749 7.30211L10.3588 6.99981L9.94266 7.30211L10.1016 6.81297L9.68555 6.51062H10.1998L10.3588 6.02148Z" fill="#F0F0F0"/>
<path d="M11.9995 6.02148L12.1584 6.51062H12.6727L12.2566 6.81297L12.4155 7.30211L11.9995 6.99981L11.5833 7.30211L11.7423 6.81297L11.3262 6.51062H11.8405L11.9995 6.02148Z" fill="#F0F0F0"/>
<path d="M13.6421 6.02148L13.801 6.51062H14.3153L13.8992 6.81297L14.0582 7.30211L13.6421 6.99981L13.2259 7.30211L13.3849 6.81297L12.9688 6.51062H13.4831L13.6421 6.02148Z" fill="#F0F0F0"/>
<path d="M15.2826 6.02148L15.4415 6.51062H15.9559L15.5398 6.81297L15.6987 7.30211L15.2826 6.99981L14.8665 7.30211L15.0254 6.81297L14.6094 6.51062H15.1236L15.2826 6.02148Z" fill="#F0F0F0"/>
<path d="M10.3588 4.31445L10.5177 4.80355H11.032L10.6159 5.10594L10.7749 5.59503L10.3588 5.29273L9.94266 5.59503L10.1016 5.10594L9.68555 4.80355H10.1998L10.3588 4.31445Z" fill="#F0F0F0"/>
<path d="M11.9995 4.31445L12.1584 4.80355H12.6727L12.2566 5.10594L12.4155 5.59503L11.9995 5.29273L11.5833 5.59503L11.7423 5.10594L11.3262 4.80355H11.8405L11.9995 4.31445Z" fill="#F0F0F0"/>
<path d="M13.6421 4.31445L13.801 4.80355H14.3153L13.8992 5.10594L14.0582 5.59503L13.6421 5.29273L13.2259 5.59503L13.3849 5.10594L12.9688 4.80355H13.4831L13.6421 4.31445Z" fill="#F0F0F0"/>
<path d="M15.2826 4.31445L15.4415 4.80355H15.9559L15.5398 5.10594L15.6987 5.59503L15.2826 5.29273L14.8665 5.59503L15.0254 5.10594L14.6094 4.80355H15.1236L15.2826 4.31445Z" fill="#F0F0F0"/>
<path d="M11.9995 2.60742L12.1584 3.09661H12.6727L12.2566 3.39891L12.4155 3.88809L11.9995 3.5858L11.5833 3.88809L11.7423 3.39891L11.3262 3.09661H11.8405L11.9995 2.60742Z" fill="#F0F0F0"/>
<path d="M13.6421 2.60742L13.801 3.09661H14.3153L13.8992 3.39891L14.0582 3.88809L13.6421 3.5858L13.2259 3.88809L13.3849 3.39891L12.9688 3.09661H13.4831L13.6421 2.60742Z" fill="#F0F0F0"/>
<path d="M15.2826 2.60742L15.4415 3.09661H15.9559L15.5398 3.39891L15.6987 3.88809L15.2826 3.5858L14.8665 3.88809L15.0254 3.39891L14.6094 3.09661H15.1236L15.2826 2.60742Z" fill="#F0F0F0"/>
</g>
<defs>
<clipPath id="clip0_1361_47711">
<rect width="24" height="24" fill="white"/>
</clipPath>
</defs>
</svg>
